<svg width="461" height="54" viewBox="0 0 461 54" fill="none" xmlns="http://www.w3.org/2000/svg">
<path d="M71.8262 9.44434H75.0664V17.627H88.6426V20.5596H75.0664V32.5361C80.0156 34.2998 84.8008 36.7881 89.4219 40.001L87.5762 43.1182C83.625 40.0557 79.4551 37.5742 75.0664 35.6738V36.5146C75.0664 39.7139 74.1846 42.1064 72.4209 43.6924C70.9307 45.0322 68.791 45.7021 66.002 45.7021C63.8145 45.7021 61.9277 45.3057 60.3418 44.5127C57.6348 43.1729 56.2812 41.1973 56.2812 38.5859C56.2812 35.9746 57.5664 34.0195 60.1367 32.7207C62.0508 31.7637 64.5049 31.2852 67.499 31.2852C68.8389 31.2852 70.2812 31.4219 71.8262 31.6953V9.44434ZM71.8262 34.6279C69.8848 34.2861 68.2441 34.1152 66.9043 34.1152C64.7168 34.1152 62.9463 34.5117 61.5928 35.3047C60.2666 36.0703 59.6035 37.082 59.6035 38.3398C59.6035 39.6523 60.2119 40.7256 61.4287 41.5596C62.5908 42.3662 64.0537 42.7695 65.8174 42.7695C68.4834 42.7695 70.2402 41.8809 71.0879 40.1035C71.5801 39.0781 71.8262 37.6562 71.8262 35.8379V34.6279ZM97.0598 17.1143C107.82 15.3506 115.155 14.4688 119.065 14.4688C123.535 14.4688 126.899 15.5625 129.155 17.75C131.451 19.9648 132.6 23.041 132.6 26.9785C132.6 30.1641 131.615 32.9873 129.647 35.4482C126.297 39.6592 119.16 42.2705 108.237 43.2822L107.047 40.001C114.416 39.3857 119.728 38.1963 122.982 36.4326C127.015 34.2588 129.031 31.0254 129.031 26.7324C129.031 23.6973 128.273 21.4482 126.755 19.9854C125.907 19.165 124.971 18.5703 123.946 18.2012C122.77 17.7637 121.184 17.5449 119.188 17.5449C115.141 17.5449 108.018 18.4814 97.8186 20.3545L97.0598 17.1143ZM163.555 10.1621H166.836L166.959 18.2217H175.778V21.1543H167.041L167.165 34.0947C170.405 35.585 173.638 37.7109 176.865 40.4727L175.101 43.3643C172.517 41.04 169.885 39.0713 167.206 37.458C167.165 40.3154 166.529 42.3867 165.298 43.6719C164.041 44.9844 162.058 45.6406 159.351 45.6406C156.876 45.6406 154.805 45.1348 153.137 44.123C151.182 42.9336 150.205 41.1904 150.205 38.8936C150.205 37.1162 150.861 35.6465 152.173 34.4844C153.828 33.0215 156.131 32.29 159.084 32.29C160.52 32.29 162.12 32.5156 163.883 32.9668L163.719 21.1543H150.205V18.2217H163.637L163.555 10.1621ZM163.945 35.8994C162.167 35.3389 160.527 35.0586 159.023 35.0586C157.437 35.0586 156.138 35.3457 155.126 35.9199C153.978 36.5762 153.404 37.5332 153.404 38.791C153.404 40.3086 154.183 41.3887 155.742 42.0312C156.712 42.4277 157.922 42.626 159.372 42.626C162.42 42.626 163.945 40.7871 163.945 37.1094V35.8994ZM141.796 45.5586C141.318 41.0332 141.079 36.4053 141.079 31.6748C141.079 24.1553 141.571 17.0049 142.555 10.2236L145.795 10.7363C144.797 16.4648 144.298 23 144.298 30.3418C144.298 35.4004 144.558 40.2881 145.078 45.0049L141.796 45.5586ZM171.164 16.3555C170.494 14.2773 169.455 12.042 168.046 9.64941L170.487 8.93164C171.909 11.2012 172.975 13.416 173.686 15.5762L171.164 16.3555ZM175.86 14.9404C175.053 12.4932 174.021 10.251 172.763 8.21387L175.183 7.53711C176.591 9.71094 177.644 11.8848 178.341 14.0586L175.86 14.9404Z" fill="#545454"/>
<path d="M203.359 33.1133C200.885 36.043 198.027 38.4323 194.785 40.2812L192.988 38.1133C196.191 36.5768 199.173 34.2721 201.934 31.1992H193.633V28.7578H203.359V21.5898H206.289V28.7578H216.328V31.1992H206.289V31.7461C209.948 33.2695 213.346 34.9557 216.484 36.8047L214.609 39.1289C212.109 37.5143 209.336 35.8477 206.289 34.1289V40.125H203.359V33.1133ZM206.836 11.5117H218.75V13.9141H206.836V17.918H223.984V20.4766H185.996V17.918H193.164V10.8281H196.289V17.918H203.789V7.80078H206.836V11.5117ZM192.09 41.4336H217.832V21.9609H220.957V45.7891H217.832V44.0312H192.09V45.7891H189.004V21.9609H192.09V41.4336ZM198.145 28.2891C197.467 26.9609 196.439 25.4245 195.059 23.6797L197.266 22.3516C198.555 23.8099 199.648 25.3594 200.547 27L198.145 28.2891ZM208.867 27.0781C210.143 25.5807 211.263 23.9271 212.227 22.1172L214.863 23.2891C213.809 25.112 212.611 26.7201 211.27 28.1133L208.867 27.0781ZM238.316 27.2344C236.688 31.388 234.715 34.9622 232.398 37.957L230.601 35.0078C233.752 31.349 236.18 27.013 237.886 22H230.991V19.2461H238.316V12.8594C236.636 13.237 234.852 13.5625 232.964 13.8359L231.675 11.4141C236.948 10.5807 241.512 9.46094 245.366 8.05469L247.163 10.3594C245.197 11.0625 243.355 11.6289 241.636 12.0586C241.519 12.0977 241.415 12.1302 241.323 12.1562V19.2461H247.515V22H241.323V24.8711C243.628 26.4466 245.764 28.1589 247.73 30.0078L245.835 32.6055C244.416 31.0039 242.912 29.4674 241.323 27.9961V45.8086H238.316V27.2344ZM262.925 30.2812L268.609 29.207L268.843 32.0391L262.925 33.1914V45.8086H259.761V33.7969L246.206 36.4336L245.679 33.5625L259.761 30.8867V7.80078H262.925V30.2812ZM255.405 19.5195C253.27 17.1497 251.017 15.0664 248.648 13.2695L250.64 11.1211C253.036 12.8138 255.34 14.8385 257.554 17.1953L255.405 19.5195ZM254.839 28.6016C252.665 26.2969 250.464 24.2852 248.237 22.5664L250.073 20.3984C252.599 22.1693 254.872 24.1419 256.89 26.3164L254.839 28.6016Z" fill="#545454"/>
<path d="M304.782 15.1045L307.305 17.2373C305.814 25.5908 303.019 31.9893 298.917 36.4326C295.171 40.5068 289.75 43.6309 282.654 45.8047L280.727 42.8516C287.631 40.9238 292.915 37.8955 296.579 33.7666C300.052 29.8428 302.396 24.6133 303.613 18.0781H288.622C285.942 22.2617 282.682 25.6797 278.84 28.332L276.44 25.9326C279.175 24.1143 281.465 22.1113 283.311 19.9238C285.662 17.1211 287.501 13.792 288.827 9.93652L292.067 10.8594C291.507 12.418 290.919 13.833 290.304 15.1045H304.782ZM314.586 10.4082H318.031V32.0234H314.586V10.4082ZM335.627 9.97754H339.072V24.0459C339.072 28.8037 338.744 32.3105 338.088 34.5664C337.39 36.9863 336.351 38.9209 334.971 40.3701C332.592 42.8584 328.907 44.7246 323.917 45.9688L322.112 42.9541C327.909 41.6826 331.676 39.584 333.412 36.6582C334.519 34.7578 335.196 32.3857 335.442 29.542C335.565 28.1748 335.627 26.3564 335.627 24.0869V9.97754ZM349.737 15.3096H377.197V18.4678H349.737V15.3096ZM345.656 38.9141H381.278V42.0723H345.656V38.9141ZM388.785 30.9365C387.923 27.0674 386.748 23.4717 385.257 20.1494L388.026 18.7549C389.475 21.749 390.733 25.4062 391.799 29.7266L388.785 30.9365ZM398.034 29.1318C397.186 25.3994 396.038 21.8311 394.588 18.4268L397.562 17.1963C398.834 20.0811 399.996 23.6836 401.048 28.0039L398.034 29.1318ZM392.353 42.9131C398.888 41.1221 403.4 37.9365 405.888 33.3564C407.843 29.7744 409.197 24.5039 409.949 17.5449L413.107 18.4678C412.41 23.6084 411.528 27.6963 410.461 30.7314C408.944 35.0928 406.681 38.4697 403.673 40.8623C401.253 42.7764 398.054 44.3555 394.076 45.5996L392.353 42.9131ZM447.602 15.1045L450.124 17.2373C448.634 25.5908 445.838 31.9893 441.737 36.4326C437.991 40.5068 432.57 43.6309 425.474 45.8047L423.546 42.8516C430.451 40.9238 435.735 37.8955 439.399 33.7666C442.871 29.8428 445.216 24.6133 446.433 18.0781H431.442C428.762 22.2617 425.501 25.6797 421.66 28.332L419.26 25.9326C421.994 24.1143 424.285 22.1113 426.13 19.9238C428.482 17.1211 430.321 13.792 431.647 9.93652L434.887 10.8594C434.327 12.418 433.739 13.833 433.123 15.1045H447.602Z" fill="#545454"/>
<path d="M12.1353 17.1489C9.18145 17.1415 6.92873 19.5522 6.7724 22.4797C6.67546 24.2786 6.74054 24.8035 7.53244 26.782C6.53985 28.711 6.59235 29.3073 6.74678 31.2014C6.98757 34.1438 9.12356 36.5531 12.0774 36.5605C16.2074 36.5711 24.4881 27.5278 24.4904 26.8878C24.4928 26.2478 16.2674 17.1586 12.1375 17.148L12.1353 17.1489Z" fill="url(#paint0_radial_4548_34)"/>
<path d="M40.5886 36.6317C43.5422 36.6087 45.7713 34.1727 45.8973 31.2455C45.9744 29.4475 45.9062 28.9214 45.0929 26.9521C46.0662 25.0135 46.0085 24.417 45.8351 22.526C45.5649 19.586 43.4026 17.1981 40.449 17.221C36.3196 17.2533 28.1332 26.3804 28.1361 27.0207C28.139 27.6611 36.4592 36.6639 40.5886 36.6317Z" fill="url(#paint1_radial_4548_34)"/>
<path d="M36.0524 12.7012C36.0388 9.75023 33.6094 7.51479 30.6807 7.38253C28.8824 7.30098 28.3561 7.36929 26.383 8.17663C24.4466 7.19825 23.8498 7.25616 21.9563 7.42591C19.0146 7.68974 16.6201 9.84667 16.6337 12.7977C16.6519 16.9259 25.759 25.1301 26.3996 25.1269C27.0402 25.1238 36.0727 16.8285 36.0524 12.7012Z" fill="url(#paint2_radial_4548_34)"/>
<path d="M16.7488 41.2803C16.7927 44.231 19.2466 46.4408 22.175 46.5427C23.9754 46.6056 24.4999 46.533 26.4638 45.7042C28.4109 46.6603 29.0059 46.5981 30.8964 46.4094C33.8356 46.1161 36.2074 43.936 36.1626 40.9831C36.1015 36.8555 26.9105 28.7456 26.2696 28.754C25.6288 28.7623 16.6847 37.1515 16.7457 41.2791L16.7488 41.2803Z" fill="url(#paint3_radial_4548_34)"/>
<defs>
<radialGradient id="paint0_radial_4548_34" cx="0" cy="0" r="1" gradientUnits="userSpaceOnUse" gradientTransform="translate(14.4117 26.3276) rotate(66.0696) scale(9.76199 9.64726)">
<stop stop-color="#22A1DB"/>
<stop offset="1" stop-color="#2185C2"/>
</radialGradient>
<radialGradient id="paint1_radial_4548_34" cx="0" cy="0" r="1" gradientUnits="userSpaceOnUse" gradientTransform="translate(38.7784 28.2452) rotate(66.0706) scale(9.78095 9.65198)">
<stop stop-color="#22A1DB"/>
<stop offset="1" stop-color="#2185C2"/>
</radialGradient>
<radialGradient id="paint2_radial_4548_34" cx="0" cy="0" r="1" gradientUnits="userSpaceOnUse" gradientTransform="translate(27.5707 15.1624) rotate(66.0508) scale(9.6487 9.77787)">
<stop stop-color="#22A1DB"/>
<stop offset="1" stop-color="#2185C2"/>
</radialGradient>
<radialGradient id="paint3_radial_4548_34" cx="0" cy="0" r="1" gradientUnits="userSpaceOnUse" gradientTransform="translate(25.8148 39.4395) rotate(66.0498) scale(9.65385 9.79617)">
<stop stop-color="#22A1DB"/>
<stop offset="1" stop-color="#2185C2"/>
</radialGradient>
</defs>
</svg>
