<svg width="21" height="30" viewBox="0 0 21 30" fill="none" xmlns="http://www.w3.org/2000/svg">
<path fill-rule="evenodd" clip-rule="evenodd" d="M2.57199 10.3018C1.02362 9.3021 0 7.5713 0 5.60355C0 2.5088 2.53197 0 5.65531 0H15.3447C18.468 0 21 2.5088 21 5.60355C21 7.5713 19.9764 9.3021 18.428 10.3018C19.9764 11.3015 21 13.0323 21 15C21 18.0948 18.468 20.6036 15.3447 20.6036H15.2416C13.7652 20.6036 12.4209 20.043 11.4137 19.1249V24.3454C11.4137 27.4747 8.82633 30 5.68094 30C2.56402 30 0 27.4976 0 24.3965C0 22.4288 1.02357 20.698 2.57189 19.6983C1.02357 18.6986 0 16.9677 0 15C0 13.0323 1.02362 11.3015 2.57199 10.3018ZM11.4137 15C11.4137 17.0948 13.1275 18.7929 15.2416 18.7929H15.3447C17.4588 18.7929 19.1726 17.0948 19.1726 15C19.1726 12.9053 17.4588 11.2072 15.3447 11.2072H15.2416C13.1275 11.2072 11.4137 12.9053 11.4137 15ZM9.58629 11.2072H5.65531C3.54121 11.2072 1.82742 12.9053 1.82742 15C1.82742 17.0905 3.5343 18.786 5.64244 18.7929H5.64845H9.58629V11.2072ZM5.65531 20.6036C5.65102 20.6036 5.64673 20.6036 5.64244 20.6036C3.5343 20.6105 1.82742 22.306 1.82742 24.3965C1.82742 26.4849 3.56044 28.1893 5.68094 28.1893C7.82991 28.1893 9.58629 26.462 9.58629 24.3454V20.6036H5.65531ZM9.58629 9.3964H5.65531C3.54121 9.3964 1.82742 7.6983 1.82742 5.60355C1.82742 3.5088 3.54121 1.8107 5.65531 1.8107H9.58629V9.3964ZM15.3447 9.3964H11.4137V1.8107H15.3447C17.4588 1.8107 19.1726 3.5088 19.1726 5.60355C19.1726 7.6983 17.4588 9.3964 15.3447 9.3964Z" fill="black"/>
</svg>
